<svg width="269" height="69" viewBox="0 0 269 69" fill="none" xmlns="http://www.w3.org/2000/svg">
<path fill-rule="evenodd" clip-rule="evenodd" d="M66 25.1785H67.2687L68.0274 23.1601H71.9582L72.7293 25.1785H73.9856L70.6273 16.3565H69.371L66 25.1785ZM69.9929 17.9641L71.535 22.0367H68.4505L69.9929 17.9641ZM74.9432 25.1785H80.9635V24.0545H76.3611L80.951 17.4199V16.3565H75.0924V17.4682H79.533L74.9432 24.103V25.1785ZM86.6607 25.2996C89.3846 25.2996 91.3749 23.2332 91.3749 20.7679C91.3749 18.2542 89.3846 16.2359 86.6607 16.2359C84.9318 16.2359 83.3894 17.2389 82.6553 18.4957L83.6879 19.112C84.2475 18.1573 85.3422 17.3598 86.6607 17.3598C88.5761 17.3598 89.9692 18.7012 90.131 20.3932H82.0585V20.8041C82.0585 23.0035 83.8121 25.2996 86.6607 25.2996ZM86.6607 24.1641C84.8322 24.1641 83.6132 22.762 83.377 21.5414H90.0689C89.7082 23.04 88.402 24.1641 86.6607 24.1641ZM92.6062 25.1785H93.788V22.1088H95.6662L97.4575 25.1785H98.8132L96.8231 21.8429C97.9175 21.3959 98.6763 20.3808 98.6763 19.2085C98.6763 17.6012 97.3951 16.3565 95.5168 16.3565H92.6062V25.1785ZM95.3925 17.4445C96.7358 17.4445 97.4575 18.1574 97.4575 19.209C97.4575 20.0791 96.7482 21.0339 95.38 21.0339H93.788V17.4445H95.3925ZM99.9821 25.1785H103.353C105.144 25.1785 106.326 24.248 106.326 22.6528C106.326 21.6498 105.841 20.9245 104.945 20.574C105.691 20.1995 106.052 19.5469 106.052 18.7371C106.052 17.2506 104.908 16.3565 103.154 16.3565H99.9821V25.1785ZM103.303 21.1786C104.547 21.1786 105.119 21.7587 105.119 22.6409C105.119 23.5111 104.448 24.1033 103.353 24.1033H101.176V21.1786H103.303ZM103.142 17.42C104.236 17.42 104.846 17.9155 104.846 18.7372C104.846 19.5228 104.311 20.0908 103.216 20.0908H101.176V17.42H103.142ZM107.159 25.1785H108.428L109.187 23.1601H113.117L113.888 25.1785H115.145L111.787 16.3565H110.53L107.159 25.1785ZM111.152 17.9641L112.694 22.0367H109.61L111.152 17.9641ZM117.197 25.1785H118.391V20.9971L121.364 16.3565H120.033L117.794 19.8732L115.555 16.3565H114.224L117.197 20.9971V25.1785ZM125.991 25.2996C127.857 25.2996 129.337 24.3086 130.133 22.8463L129.051 22.2906C128.492 23.4023 127.459 24.1517 125.979 24.1517C124.026 24.1517 122.546 22.641 122.546 20.7679C122.546 18.8826 124.026 17.3598 125.991 17.3598C127.335 17.3598 128.367 18.0366 128.952 19.0879L130.009 18.4594C129.213 17.1301 127.683 16.2359 125.991 16.2359C123.404 16.2359 121.327 18.1935 121.327 20.7679C121.327 23.2694 123.342 25.2996 125.991 25.2996ZM130.619 25.1785H131.887L132.646 23.1601H136.577L137.348 25.1785H138.604L135.246 16.3565H133.99L130.619 25.1785ZM134.612 17.9641L136.154 22.0367H133.069L134.612 17.9641ZM139.686 25.1785H140.88V18.1449L145.856 25.1785H147.137V16.3565H145.943V23.2932L141.055 16.3565H139.686V25.1785ZM151.739 25.1785H152.921V22.1088H154.799L156.591 25.1785H157.946L155.956 21.8429C157.051 21.3959 157.809 20.3808 157.809 19.2085C157.809 17.6012 156.528 16.3565 154.65 16.3565H151.739V25.1785ZM154.526 17.4445C155.869 17.4445 156.591 18.1574 156.591 19.209C156.591 20.0791 155.881 21.0339 154.513 21.0339H152.921V17.4445H154.526ZM159.115 25.1785H164.589V24.0545H160.31V21.3114H164.589V20.1995H160.31V17.4682H164.589V16.3565H159.115V25.1785ZM168.718 25.2996C170.559 25.2996 171.715 24.0427 171.715 22.6893C171.715 21.0458 170.372 20.5503 169.116 20.1273C168.059 19.7769 167.051 19.511 167.051 18.5804C167.051 17.819 167.698 17.2751 168.681 17.2751C169.514 17.2751 170.136 17.5895 170.571 18.23L171.554 17.5168C170.87 16.7435 170.024 16.2359 168.681 16.2359C167.039 16.2359 165.82 17.2751 165.82 18.6046C165.82 20.1998 167.138 20.6831 168.37 21.07C169.464 21.3962 170.472 21.7225 170.472 22.6893C170.472 23.5595 169.763 24.2 168.705 24.2C167.76 24.2 167.026 23.7527 166.479 22.9311L165.422 23.7286C166.168 24.6833 167.188 25.2996 168.718 25.2996ZM172.947 25.1785H174.141V22.5076H175.87C177.823 22.5076 179.179 21.1663 179.179 19.4259C179.179 17.6978 177.823 16.3565 175.883 16.3565H172.947V25.1785ZM175.796 17.4325C177.139 17.4325 177.96 18.3028 177.96 19.4265C177.96 20.5263 177.139 21.4086 175.796 21.4086H174.141V17.4325H175.796ZM183.582 25.2993C185.398 25.2993 186.754 24.0787 186.754 22.2296V16.3565H185.56V22.3023C185.56 23.3295 184.677 24.1997 183.582 24.1997C182.475 24.1997 181.617 23.3295 181.617 22.3023V16.3565H180.423V22.2296C180.423 24.0787 181.754 25.2993 183.582 25.2993ZM188.222 25.1785H191.593C193.384 25.1785 194.565 24.248 194.565 22.6528C194.565 21.6498 194.08 20.9245 193.185 20.574C193.931 20.1995 194.292 19.5469 194.292 18.7371C194.292 17.2506 193.147 16.3565 191.393 16.3565H188.222V25.1785ZM191.543 21.1786C192.787 21.1786 193.359 21.7587 193.359 22.6409C193.359 23.5111 192.687 24.1033 191.593 24.1033H189.416V21.1786H191.543ZM191.381 17.42C192.476 17.42 193.085 17.9155 193.085 18.7372C193.085 19.5228 192.55 20.0908 191.456 20.0908H189.416V17.42H191.381ZM195.809 25.1785H200.847V24.0545H197.003V16.3565H195.809V25.1785ZM202.278 25.1785H203.484V16.3565H202.278V25.1785ZM202.066 14.7734C202.066 15.2448 202.365 15.559 202.875 15.559C203.409 15.559 203.695 15.2448 203.695 14.7734C203.695 14.3021 203.409 14 202.875 14C202.389 14 202.066 14.3021 202.066 14.7734ZM210.599 25.1785H211.992L208.608 19.8491L211.631 16.3565H210.151L206.27 20.8278V16.3565H205.076V25.1785H206.27V22.3626L207.763 20.6465L210.599 25.1785ZM212.552 25.1785H213.82L214.579 23.1601H218.51L219.281 25.1785H220.537L217.179 16.3565H215.923L212.552 25.1785ZM216.545 17.9641L218.087 22.0367H215.002L216.545 17.9641ZM224.567 25.2996C226.408 25.2996 227.565 24.0427 227.565 22.6893C227.565 21.0458 226.222 20.5503 224.965 20.1273C223.908 19.7769 222.901 19.511 222.901 18.5804C222.901 17.819 223.547 17.2751 224.53 17.2751C225.363 17.2751 225.985 17.5895 226.421 18.23L227.403 17.5168C226.719 16.7435 225.873 16.2359 224.53 16.2359C222.888 16.2359 221.669 17.2751 221.669 18.6046C221.669 20.1998 222.988 20.6831 224.219 21.07C225.313 21.3962 226.321 21.7225 226.321 22.6893C226.321 23.5595 225.612 24.2 224.555 24.2C223.61 24.2 222.876 23.7527 222.328 22.9311L221.271 23.7286C222.017 24.6833 223.037 25.2996 224.567 25.2996ZM228.896 25.1785H230.102V16.3565H228.896V25.1785ZM231.695 25.1785H232.889V18.1449L237.864 25.1785H239.145V16.3565H237.951V23.2932L233.063 16.3565H231.695V25.1785ZM240.75 25.1785H241.956V16.3565H240.75V25.1785ZM243.549 25.1785H244.743V18.1449L249.718 25.1785H251V16.3565H249.805V23.2932L244.917 16.3565H243.549V25.1785ZM66.4103 40.1033H68.985C71.6844 40.1033 73.687 38.206 73.687 35.6923C73.687 33.1908 71.8335 31.2813 68.9353 31.2813H66.4103V40.1033ZM68.8237 32.3573C71.1124 32.3573 72.4681 33.7955 72.4681 35.6929C72.4681 37.5781 71.0005 39.0161 68.861 39.0161H67.6047V32.3573H68.8237ZM77.3938 29.6982C77.3938 30.1696 77.6799 30.4597 78.1773 30.4597C78.6874 30.4597 78.9735 30.1696 78.9735 29.6982C78.9735 29.2511 78.6874 28.949 78.1773 28.949C77.6923 28.949 77.3938 29.2511 77.3938 29.6982ZM79.8193 29.6982C79.8193 30.1696 80.1054 30.4597 80.6031 30.4597C81.1129 30.4597 81.3991 30.1696 81.3991 29.6982C81.3991 29.2511 81.1129 28.949 80.6031 28.949C80.1179 28.949 79.8193 29.2511 79.8193 29.6982ZM79.4338 40.2244C82.021 40.2244 84.0984 38.1943 84.0984 35.6927C84.0984 33.1911 82.021 31.1607 79.4338 31.1607C76.8591 31.1607 74.7819 33.1911 74.7819 35.6927C74.7819 38.1943 76.8591 40.2244 79.4338 40.2244ZM79.4338 39.0892C77.5057 39.0892 76.0007 37.5544 76.0007 35.6933C76.0007 33.8201 77.5057 32.2973 79.4338 32.2973C81.3741 32.2973 82.8917 33.8201 82.8917 35.6933C82.8917 37.5544 81.3741 39.0892 79.4338 39.0892ZM87.5809 40.1033H88.8001L92.034 31.2813H90.7777L88.203 38.3995L85.6158 31.2813H84.3594L87.5809 40.1033ZM93.116 40.1033H98.1537V38.9794H94.3102V31.2813H93.116V40.1033ZM103.826 40.2244C106.549 40.2244 108.54 38.1581 108.54 35.6927C108.54 33.179 106.549 31.1607 103.826 31.1607C102.097 31.1607 100.554 32.1637 99.8202 33.4206L100.853 34.0369C101.412 33.0821 102.507 32.2847 103.826 32.2847C105.741 32.2847 107.134 33.6261 107.296 35.3181H99.2234V35.7289C99.2234 37.9284 100.977 40.2244 103.826 40.2244ZM103.826 39.0888C101.997 39.0888 100.778 37.6868 100.542 36.4662H107.234C106.873 37.9648 105.567 39.0888 103.826 39.0888ZM112.147 40.1033H113.341V32.3809H115.978V31.2813H109.51V32.3809H112.147V40.1033ZM120.294 40.1033H122.869C125.568 40.1033 127.571 38.206 127.571 35.6923C127.571 33.1908 125.717 31.2813 122.819 31.2813H120.294V40.1033ZM122.708 32.3573C124.996 32.3573 126.352 33.7955 126.352 35.6929C126.352 37.5781 124.884 39.0161 122.745 39.0161H121.489V32.3573H122.708ZM128.902 40.1033H130.108V31.2813H128.902V40.1033ZM128.69 29.6981C128.69 30.1695 128.989 30.4837 129.499 30.4837C130.034 30.4837 130.32 30.1695 130.32 29.6981C130.32 29.2269 130.034 28.9248 129.499 28.9248C129.014 28.9248 128.69 29.2269 128.69 29.6981ZM131.7 40.1033H136.738V38.9794H132.895V31.2813H131.7V40.1033ZM146.689 40.1033H148.082L144.699 34.7739L147.722 31.2813H146.241L142.361 35.7527V31.2813H141.166V40.1033H142.361V37.2876L143.853 35.5714L146.689 40.1033ZM152.821 40.2244C155.409 40.2244 157.486 38.1943 157.486 35.6927C157.486 33.1911 155.409 31.1607 152.821 31.1607C150.247 31.1607 148.17 33.1911 148.17 35.6927C148.17 38.1943 150.247 40.2244 152.821 40.2244ZM152.821 39.0892C150.893 39.0892 149.388 37.5544 149.388 35.6933C149.388 33.8201 150.893 32.2973 152.821 32.2973C154.762 32.2973 156.279 33.8201 156.279 35.6933C156.279 37.5544 154.762 39.0892 152.821 39.0892ZM158.717 40.1033H159.911V33.2149L163.12 37.481L166.417 33.1546V40.1033H167.611V31.2813H166.417V31.3538L163.145 35.6199L159.924 31.2813H158.717V40.1033ZM169.216 40.1033H170.422V31.2813H169.216V40.1033ZM169.004 29.6981C169.004 30.1695 169.303 30.4837 169.813 30.4837C170.348 30.4837 170.634 30.1695 170.634 29.6981C170.634 29.2269 170.348 28.9248 169.813 28.9248C169.328 28.9248 169.004 29.2269 169.004 29.6981ZM174.775 40.2244C176.616 40.2244 177.773 38.9676 177.773 37.6142C177.773 35.9707 176.43 35.4751 175.174 35.0522C174.116 34.7018 173.109 34.4359 173.109 33.5053C173.109 32.7438 173.756 32.1999 174.738 32.1999C175.571 32.1999 176.193 32.5144 176.629 33.1549L177.612 32.4417C176.927 31.6683 176.082 31.1607 174.738 31.1607C173.096 31.1607 171.877 32.1999 171.877 33.5294C171.877 35.1247 173.196 35.6079 174.427 35.9948C175.522 36.3211 176.529 36.6474 176.529 37.6142C176.529 38.4844 175.82 39.1248 174.763 39.1248C173.818 39.1248 173.084 38.6775 172.537 37.8559L171.479 38.6534C172.226 39.6081 173.245 40.2244 174.775 40.2244ZM181.828 40.2244C183.669 40.2244 184.826 38.9676 184.826 37.6142C184.826 35.9707 183.482 35.4751 182.226 35.0522C181.169 34.7018 180.161 34.4359 180.161 33.5053C180.161 32.7438 180.808 32.1999 181.791 32.1999C182.624 32.1999 183.246 32.5144 183.681 33.1549L184.664 32.4417C183.98 31.6683 183.134 31.1607 181.791 31.1607C180.149 31.1607 178.93 32.1999 178.93 33.5294C178.93 35.1247 180.248 35.6079 181.48 35.9948C182.574 36.3211 183.582 36.6474 183.582 37.6142C183.582 38.4844 182.873 39.1248 181.816 39.1248C180.87 39.1248 180.136 38.6775 179.589 37.8559L178.532 38.6534C179.278 39.6081 180.298 40.2244 181.828 40.2244ZM186.157 40.1033H187.363V31.2813H186.157V40.1033ZM185.945 29.6981C185.945 30.1695 186.244 30.4837 186.754 30.4837C187.289 30.4837 187.575 30.1695 187.575 29.6981C187.575 29.2269 187.289 28.9248 186.754 28.9248C186.269 28.9248 185.945 29.2269 185.945 29.6981ZM191.481 40.1033H192.675V35.922L195.648 31.2813H194.317L192.078 34.798L189.839 31.2813H188.508L191.481 35.922V40.1033ZM194.714 40.1033H195.983L196.742 38.085H200.673L201.444 40.1033H202.7L199.342 31.2813H198.085L194.714 40.1033ZM198.707 32.8889L200.25 36.9615H197.165L198.707 32.8889ZM206.73 40.2244C208.571 40.2244 209.728 38.9676 209.728 37.6142C209.728 35.9707 208.385 35.4751 207.128 35.0522C206.071 34.7018 205.064 34.4359 205.064 33.5053C205.064 32.7438 205.71 32.1999 206.693 32.1999C207.526 32.1999 208.148 32.5144 208.584 33.1549L209.566 32.4417C208.882 31.6683 208.036 31.1607 206.693 31.1607C205.051 31.1607 203.832 32.1999 203.832 33.5294C203.832 35.1247 205.151 35.6079 206.382 35.9948C207.477 36.3211 208.484 36.6474 208.484 37.6142C208.484 38.4844 207.775 39.1248 206.718 39.1248C205.773 39.1248 205.039 38.6775 204.491 37.8559L203.434 38.6534C204.18 39.6081 205.2 40.2244 206.73 40.2244ZM211.059 40.1033H212.265V31.2813H211.059V40.1033ZM219.48 40.1033H220.674V35.922L223.647 31.2813H222.316L220.077 34.798L217.838 31.2813H216.507L219.48 35.922V40.1033ZM222.714 40.1033H223.983L224.741 38.085H228.672L229.443 40.1033H230.699L227.341 31.2813H226.085L222.714 40.1033ZM226.707 32.8889L228.249 36.9615H225.164L226.707 32.8889ZM231.781 40.1033H232.976V33.0698L237.951 40.1033H239.232V31.2813H238.038V38.2181L233.15 31.2813H231.781V40.1033ZM240.837 40.1033H242.043V31.2813H240.837V40.1033ZM243.635 40.1033H244.829V33.0698L249.805 40.1033H251.086V31.2813H249.892V38.2181L245.004 31.2813H243.635V40.1033ZM252.591 40.1033H255.166C257.865 40.1033 259.868 38.206 259.868 35.6923C259.868 33.1908 258.015 31.2813 255.116 31.2813H252.591V40.1033ZM255.004 32.3573C257.293 32.3573 258.649 33.7955 258.649 35.6929C258.649 37.5781 257.181 39.0161 255.042 39.0161H253.785V32.3573H255.004ZM260.129 40.1033H261.398L262.156 38.085H266.087L266.858 40.1033H268.114L264.756 31.2813H263.5L260.129 40.1033ZM264.122 32.8889L265.664 36.9615H262.579L264.122 32.8889ZM66.1866 55.029H67.8782V48.9019L70.6021 52.4912L73.3884 48.8415V55.029H75.0802V46.2071H73.4754L70.6147 49.9172L67.8658 46.2071H66.1866V55.029ZM80.5032 55.1496C83.0907 55.1496 85.1554 53.1316 85.1554 50.6179C85.1554 48.1162 83.0907 46.0858 80.5032 46.0858C77.916 46.0858 75.8639 48.1162 75.8639 50.6179C75.8639 53.1316 77.916 55.1496 80.5032 55.1496ZM80.5033 53.5304C78.849 53.5304 77.543 52.2252 77.543 50.618C77.543 49.0107 78.849 47.7053 80.5033 47.7053C82.1579 47.7053 83.4763 49.0107 83.4763 50.618C83.4763 52.2252 82.1579 53.5304 80.5033 53.5304ZM85.9391 55.029H87.6307V48.8294L91.6734 55.029H93.4768V46.2071H91.7853V52.2132L87.8547 46.2071H85.9391V55.029ZM94.5839 55.029H96.2755V46.2071H94.5839V55.029ZM94.4221 44.7685C94.4221 45.3365 94.7703 45.7112 95.4047 45.7112C96.0142 45.7112 96.3873 45.3365 96.3873 44.7685C96.3873 44.2005 96.0142 43.8138 95.4047 43.8138C94.8079 43.8138 94.4221 44.2005 94.4221 44.7685ZM99.6093 55.029H101.301V47.7781H103.739V46.2071H97.1837V47.7781H99.6093V55.029ZM108.229 55.1496C110.816 55.1496 112.881 53.1316 112.881 50.6179C112.881 48.1162 110.816 46.0858 108.229 46.0858C105.642 46.0858 103.589 48.1162 103.589 50.6179C103.589 53.1316 105.642 55.1496 108.229 55.1496ZM108.229 53.5304C106.575 53.5304 105.268 52.2252 105.268 50.618C105.268 49.0107 106.575 47.7053 108.229 47.7053C109.883 47.7053 111.202 49.0107 111.202 50.618C111.202 52.2252 109.883 53.5304 108.229 53.5304ZM115.356 55.029V52.334H116.874L118.329 55.029H120.257L118.441 51.8508C119.436 51.331 119.971 50.3401 119.971 49.2764C119.971 47.4518 118.715 46.2071 116.575 46.2071H113.665V55.029H115.356ZM115.356 50.8232V47.7415H116.426C117.72 47.7415 118.28 48.3095 118.28 49.2159C118.28 50.0861 117.819 50.8232 116.426 50.8232H115.356ZM120.991 55.029H122.683V46.2071H120.991V55.029ZM120.829 44.7685C120.829 45.3365 121.178 45.7112 121.812 45.7112C122.421 45.7112 122.795 45.3365 122.795 44.7685C122.795 44.2005 122.421 43.8138 121.812 43.8138C121.215 43.8138 120.829 44.2005 120.829 44.7685ZM123.79 55.029H125.482V48.8294L129.524 55.029H131.328V46.2071H129.636V52.2132L125.706 46.2071H123.79V55.029ZM139.525 55.0288H141.59L140.371 53.494C141.017 52.7086 141.415 51.7295 141.415 50.6179C141.415 48.1162 139.351 46.0858 136.763 46.0858C134.176 46.0858 132.124 48.1162 132.124 50.6179C132.124 53.1316 134.176 55.1496 136.763 55.1496C137.448 55.1496 138.094 55.0168 138.704 54.7388L137.646 53.3974C137.36 53.482 137.062 53.5303 136.763 53.5303C135.109 53.5303 133.803 52.2251 133.803 50.6179C133.803 49.0106 135.109 47.7052 136.763 47.7052C138.418 47.7052 139.736 49.0106 139.736 50.6179C139.736 51.1859 139.562 51.6933 139.276 52.1406L138.132 50.6903H136.104L139.525 55.0288ZM145.247 55.029H146.938V48.9019L149.662 52.4912L152.449 48.8415V55.029H154.14V46.2071H152.536L149.675 49.9172L146.926 46.2071H145.247V55.029ZM159.489 55.1496C162.325 55.1496 164.203 53.0712 164.203 50.6179C164.203 48.1525 162.25 46.0858 159.563 46.0858C157.71 46.0858 156.242 47.0406 155.508 48.3457L156.951 49.2158C157.486 48.2974 158.407 47.681 159.551 47.681C161.043 47.681 162.213 48.7326 162.474 50.074H154.949L154.936 50.7144C154.899 52.914 156.752 55.1496 159.489 55.1496ZM159.489 53.5546C158.183 53.5546 157.063 52.5879 156.79 51.6452H162.337C161.927 52.7693 160.87 53.5546 159.489 53.5546ZM166.678 55.029V52.334H168.196L169.651 55.029H171.579L169.763 51.8508C170.758 51.331 171.293 50.3401 171.293 49.2764C171.293 47.4518 170.037 46.2071 167.897 46.2071H164.987V55.029H166.678ZM166.679 50.8232V47.7415H167.748C169.042 47.7415 169.601 48.3095 169.601 49.2159C169.601 50.0861 169.141 50.8232 167.748 50.8232H166.679ZM177.326 55.029H179.254L176.119 49.6392L178.993 46.2071H176.94L173.943 49.8204V46.2071H172.251V55.029H173.943V51.9715L174.925 50.7871L177.326 55.029ZM184.254 55.1496C187.09 55.1496 188.968 53.0712 188.968 50.6179C188.968 48.1525 187.015 46.0858 184.329 46.0858C182.475 46.0858 181.008 47.0406 180.274 48.3457L181.717 49.2158C182.251 48.2974 183.172 47.681 184.316 47.681C185.809 47.681 186.978 48.7326 187.239 50.074H179.714L179.702 50.7144C179.664 52.914 181.518 55.1496 184.254 55.1496ZM184.254 53.5546C182.948 53.5546 181.829 52.5879 181.555 51.6452H187.102C186.692 52.7693 185.635 53.5546 184.254 53.5546ZM189.677 55.029H195.685V53.458H191.668L195.685 47.7054V46.2071H189.814V47.7781H193.695L189.677 53.5184V55.029ZM196.73 55.029H198.422V46.2071H196.73V55.029ZM196.568 44.7685C196.568 45.3365 196.917 45.7112 197.551 45.7112C198.161 45.7112 198.534 45.3365 198.534 44.7685C198.534 44.2005 198.161 43.8138 197.551 43.8138C196.954 43.8138 196.568 44.2005 196.568 44.7685Z" fill="#4D4E4C"/>
<path fill-rule="evenodd" clip-rule="evenodd" d="M47.1305 12.705L47.1303 12.7048C44.9377 10.5746 41.3503 10.5746 39.1576 12.705L20.7808 30.5593C18.5882 32.6897 18.5882 36.1752 20.7808 38.3057L20.781 38.3058C22.9735 40.4361 26.5612 40.4361 28.7537 38.3058L47.1305 20.4514C49.3232 18.3209 49.3232 14.8354 47.1305 12.705Z" fill="#D8232A"/>
<path fill-rule="evenodd" clip-rule="evenodd" d="M47.1305 56.1601H47.1303C44.9377 58.2906 41.3503 58.2906 39.1576 56.1601L20.7808 38.3057C18.5882 36.1754 18.5882 32.6897 20.7808 30.5595L20.781 30.5593C22.9735 28.4291 26.5612 28.4291 28.7537 30.5593L47.1305 48.4138C49.3232 50.5442 49.3232 54.0297 47.1305 56.1601Z" fill="#AA252A"/>
<path fill-rule="evenodd" clip-rule="evenodd" d="M36.6285 1.59786L36.6284 1.59766C34.4356 -0.532553 30.8481 -0.532553 28.6554 1.59766L10.2788 19.4522C8.08612 21.5826 8.08612 25.0681 10.2786 27.1985H10.2788C12.4716 29.3289 16.059 29.3289 18.2518 27.1985L36.6285 9.34397C38.8211 7.21376 38.8211 3.72827 36.6285 1.59786Z" fill="#00A3DA"/>
<path fill-rule="evenodd" clip-rule="evenodd" d="M1.64439 11.0633C3.83691 8.93301 7.42477 8.93301 9.61729 11.0633L18.2517 19.4522C20.4442 21.5825 20.4442 25.0683 18.2517 27.1985C16.0589 29.3288 12.4713 29.3288 10.2787 27.1985L1.64439 18.8096C-0.548131 16.6794 -0.548131 13.1937 1.64439 11.0633Z" fill="#0076AB"/>
<path fill-rule="evenodd" clip-rule="evenodd" d="M36.6285 67.2673L36.6284 67.2675C34.4356 69.3977 30.8481 69.3977 28.6554 67.2675L10.2788 49.413C8.08612 47.2826 8.08612 43.7971 10.2786 41.6667H10.2788C12.4716 39.5362 16.059 39.5362 18.2518 41.6667L36.6285 59.5212C38.8211 61.6514 38.8211 65.1369 36.6285 67.2673Z" fill="#009949"/>
<path fill-rule="evenodd" clip-rule="evenodd" d="M1.64439 57.8021C3.83691 59.9323 7.42477 59.9323 9.61729 57.8021L18.2517 49.4131C20.4442 47.2828 20.4442 43.797 18.2517 41.6668C16.0589 39.5365 12.4713 39.5365 10.2787 41.6668L1.64439 50.0558C-0.548131 52.186 -0.548131 55.6717 1.64439 57.8021Z" fill="#007D41"/>
</svg>
