<svg width="14" height="12" viewBox="0 0 14 12" fill="none" xmlns="http://www.w3.org/2000/svg">
<path d="M13.4167 0.750006C12.8581 1.14403 12.2396 1.4454 11.585 1.64251C11.2337 1.23855 10.7668 0.952243 10.2474 0.822297C9.72809 0.69235 9.18137 0.725037 8.68121 0.915938C8.18105 1.10684 7.75159 1.44674 7.4509 1.88967C7.15022 2.33261 6.99282 2.8572 6.99999 3.39251V3.97584C5.97486 4.00242 4.95907 3.77506 4.04308 3.31402C3.12709 2.85297 2.33935 2.17254 1.74999 1.33334C1.74999 1.33334 -0.583338 6.58334 4.66666 8.91667C3.4653 9.73215 2.03417 10.141 0.583328 10.0833C5.83333 13 12.25 10.0833 12.25 3.37501C12.2495 3.21252 12.2338 3.05044 12.2033 2.89084C12.7987 2.30371 13.2188 1.56242 13.4167 0.750006Z" fill="#101010"/>
</svg>
